<svg width="46" height="46" viewBox="0 0 46 46" fill="none" xmlns="http://www.w3.org/2000/svg">
<path d="M23 0C18.451 0 14.0042 1.34893 10.2219 3.8762C6.43956 6.40347 3.4916 9.99558 1.75078 14.1983C0.00996554 18.401 -0.445511 23.0255 0.441949 27.4871C1.32941 31.9486 3.51995 36.0468 6.73655 39.2634C9.95316 42.4801 14.0514 44.6706 18.5129 45.558C22.9745 46.4455 27.599 45.99 31.8017 44.2492C36.0044 42.5084 39.5965 39.5604 42.1238 35.7781C44.6511 31.9958 46 27.549 46 23C45.9936 16.902 43.5683 11.0556 39.2563 6.74365C34.9444 2.43171 29.098 0.0064396 23 0ZM23 42.4615C19.1509 42.4615 15.3882 41.3201 12.1878 39.1817C8.98732 37.0432 6.49289 34.0037 5.01989 30.4476C3.54689 26.8915 3.16149 22.9784 3.91242 19.2032C4.66335 15.4281 6.51688 11.9604 9.23862 9.23861C11.9604 6.51687 15.4281 4.66334 19.2032 3.91241C22.9784 3.16148 26.8915 3.54688 30.4476 5.01988C34.0037 6.49288 37.0432 8.98731 39.1817 12.1877C41.3201 15.3882 42.4615 19.1509 42.4615 23C42.4557 28.1597 40.4034 33.1064 36.7549 36.7549C33.1064 40.4034 28.1597 42.4557 23 42.4615ZM33.6154 23C33.6154 23.4692 33.429 23.9192 33.0972 24.251C32.7654 24.5828 32.3154 24.7692 31.8462 24.7692H18.4243L22.4825 28.8252C22.6469 28.9896 22.7773 29.1847 22.8662 29.3995C22.9552 29.6143 23.001 29.8444 23.001 30.0769C23.001 30.3094 22.9552 30.5396 22.8662 30.7543C22.7773 30.9691 22.6469 31.1643 22.4825 31.3286C22.3181 31.493 22.123 31.6234 21.9082 31.7124C21.6934 31.8013 21.4632 31.8471 21.2308 31.8471C20.9983 31.8471 20.7681 31.8013 20.5533 31.7124C20.3386 31.6234 20.1434 31.493 19.979 31.3286L12.9021 24.2517C12.7376 24.0874 12.6071 23.8923 12.5181 23.6775C12.4291 23.4627 12.3832 23.2325 12.3832 23C12.3832 22.7675 12.4291 22.5373 12.5181 22.3225C12.6071 22.1077 12.7376 21.9126 12.9021 21.7483L19.979 14.6713C20.311 14.3394 20.7613 14.1529 21.2308 14.1529C21.7003 14.1529 22.1505 14.3394 22.4825 14.6713C22.8145 15.0033 23.001 15.4536 23.001 15.9231C23.001 16.3926 22.8145 16.8428 22.4825 17.1748L18.4243 21.2308H31.8462C32.3154 21.2308 32.7654 21.4172 33.0972 21.749C33.429 22.0808 33.6154 22.5308 33.6154 23Z" fill="white"/>
</svg>
